<svg width="22" height="21" viewBox="0 0 22 21" fill="none" xmlns="http://www.w3.org/2000/svg">
<path d="M11.1201 1.44L14.1 7.48001L20.7601 8.45001L15.9401 13.14L17.0801 19.78L11.1201 16.65L5.16003 19.78L6.30005 13.14L1.48004 8.45001L8.14008 7.48001L11.1201 1.44Z" fill="#11080E"/>
<path d="M17.79 20.77L11.11 17.26L4.44006 20.77L5.71008 13.34L0.310059 8.07999L7.77008 7L11.11 0.23999L14.4501 7L21.91 8.07999L16.5101 13.34L17.7801 20.77H17.79ZM11.11 16.04L16.35 18.8L15.35 12.96L19.5901 8.82999L13.73 7.98001L11.11 2.67001L8.49005 7.98001L2.63007 8.82999L6.87006 12.96L5.87006 18.8L11.11 16.04Z" fill="#11080E"/>
</svg>
