<svg width="118" height="54" viewBox="0 0 118 54" fill="none" xmlns="http://www.w3.org/2000/svg">
<g class="eyes">
<path d="M37.24 1.20001L40.22 7.24002L46.88 8.21002L42.06 12.9L43.2 19.54L37.24 16.41L31.28 19.54L32.42 12.9L27.6 8.21002L34.26 7.24002L37.24 1.20001Z" fill="#11080E"/>
<path d="M43.91 20.53L37.24 17.02L30.56 20.53L31.83 13.1L26.43 7.84L33.89 6.76001L37.23 0L40.57 6.76001L48.03 7.84L42.63 13.1L43.9 20.53H43.91ZM28.75 8.59L32.99 12.72L31.99 18.56L37.23 15.8L42.47 18.56L41.47 12.72L45.71 8.59L39.85 7.74002L37.23 2.43002L34.61 7.74002L28.75 8.59Z" fill="#11080E"/>
</g>
<g class="eyesRight">
<path d="M79.94 1.20001L82.92 7.24002L89.58 8.21002L84.76 12.9L85.9 19.54L79.94 16.41L73.98 19.54L75.12 12.9L70.3 8.21002L76.96 7.24002L79.94 1.20001Z" fill="#11080E"/>
<path d="M86.61 20.53L79.93 17.02L73.26 20.53L74.53 13.1L69.13 7.84L76.59 6.76001L79.93 0L83.27 6.76001L90.73 7.84L85.33 13.1L86.6 20.53H86.61ZM79.93 15.8L85.17 18.56L84.17 12.72L88.41 8.59L82.55 7.74002L79.93 2.43002L77.31 7.74002L71.45 8.59L75.69 12.72L74.69 18.56L79.93 15.8Z" fill="#11080E"/>
</g>
<path d="M57.86 53.36C29.05 53.36 8.08 39.54 0 33.21L6.32001 25.14C14.13 31.25 35.41 45.2 64.39 42.85C86.99 41.01 103.13 30.06 110.74 23.7L117.31 31.56C108.77 38.7 90.64 50.99 65.22 53.06C62.72 53.26 60.26 53.36 57.86 53.36Z" fill="#11080E"/>
</svg>
