<svg width="1337" height="477" viewBox="0 0 1337 477" fill="none" xmlns="http://www.w3.org/2000/svg">
<path d="M358.203 100.978C358.203 42.1844 394.399 0 447.749 0C493.199 0 522.873 29.1193 527.773 65.5928H507.086C503.275 43.8175 487.211 17.4202 447.482 17.4202C400.387 17.4202 378.889 57.4271 378.889 100.978C378.889 144.528 400.665 184.268 447.482 184.268C488.577 184.268 505.73 155.96 507.908 129.018H528.594C523.962 171.48 493.754 201.698 447.482 201.698C394.677 201.698 358.203 160.048 358.203 100.988V100.978Z" fill="#11080E"/>
<path d="M557.169 132.552V3.53328H577.044V132.552C577.044 167.392 594.464 184.268 630.393 184.268C666.323 184.268 683.743 167.392 683.743 132.552V3.53328H703.608V132.552C703.608 173.925 681.288 201.688 630.383 201.688C579.478 201.688 557.169 173.925 557.169 132.552Z" fill="#11080E"/>
<path d="M744.436 198.155V3.53328H764.311V180.724H869.376V198.144H744.446L744.436 198.155Z" fill="#11080E"/>
<path d="M907.75 198.155V20.9535H841.603V3.53328H993.752V20.9535H927.338V198.144H907.74L907.75 198.155Z" fill="#11080E"/>
<path d="M37.285 476.508C17.4202 449.022 0 407.649 0 358.377C0 309.106 17.4202 266.654 37.285 239.158H53.3391C34.2857 272.088 19.8648 308.017 19.8648 358.377C19.8648 408.738 34.2857 443.578 53.3391 476.508H37.285Z" fill="#11080E"/>
<path d="M76.7582 444.667V250.056H206.865V267.476H96.6333V336.335H187.545V353.755H96.6333V444.667H76.7582Z" fill="#11080E"/>
<path d="M191.078 444.667L263.748 250.056H286.067L359.292 444.667H338.061L318.463 390.773H231.095L211.497 444.667H191.078ZM237.617 373.076H312.198L275.18 268.832H274.635L237.617 373.076Z" fill="#11080E"/>
<path d="M418.362 444.667L347.315 250.056H368.823L428.705 424.525H428.982L488.32 250.056H509.006L439.058 444.667H418.362Z" fill="#11080E"/>
<path d="M517.48 347.972C517.48 289.457 554.765 247.262 611.113 247.262C667.462 247.262 704.48 289.457 704.48 347.972C704.48 406.488 667.185 448.96 611.113 448.96C555.042 448.96 517.48 406.499 517.48 347.972ZM683.783 350.027C683.783 304.032 659.019 266.736 611.113 266.736C563.208 266.736 538.167 304.032 538.167 350.027C538.167 396.022 562.941 433.594 611.113 433.594C659.286 433.594 683.783 396.032 683.783 350.027Z" fill="#11080E"/>
<path d="M736.825 444.667V250.056H813.039C854.412 250.056 876.998 269.386 876.998 305.038C876.998 330.891 862.033 348.589 840.802 354.033V354.577C885.441 363.564 869.921 439.778 880.542 443.034V444.667H859.311C850.324 436.501 868.021 363.821 816.038 363.821H756.7V444.667H736.825ZM808.139 346.401C839.169 346.401 857.134 332.524 857.134 305.305C857.134 280.531 842.98 267.476 809.495 267.476H756.69V346.411H808.129L808.139 346.401Z" fill="#11080E"/>
<path d="M911.838 444.667V250.056H931.713V444.667H911.838Z" fill="#11080E"/>
<path d="M1023.44 444.667V267.476H957.289V250.056H1109.44V267.476H1043.02V444.667H1023.43H1023.44Z" fill="#11080E"/>
<path d="M1134.77 250.056H1266.79V267.476H1154.64V334.435H1254.81V351.855H1154.64V427.257H1269.77V444.677H1134.77V250.056Z" fill="#11080E"/>
<path d="M1283.65 476.508C1302.7 443.578 1317.13 407.649 1317.13 357.289C1317.13 306.928 1302.7 272.088 1283.65 239.158H1299.7C1319.58 266.644 1337 308.017 1337 357.289C1337 406.56 1319.58 449.012 1299.7 476.508H1283.65Z" fill="#11080E"/>
<g class="eyes">
<path d="M588.979 326.053L592.04 332.257L598.881 333.254L593.93 338.071L595.101 344.891L588.979 341.676L582.857 344.891L584.028 338.071L579.077 333.254L585.918 332.257L588.979 326.053Z" fill="#11080E"/>
<path d="M595.83 345.908L588.979 342.303L582.118 345.908L583.422 338.276L577.876 332.874L585.538 331.764L588.969 324.821L592.399 331.764L600.062 332.874L594.515 338.276L595.82 345.908H595.83ZM580.259 333.644L584.614 337.886L583.587 343.884L588.969 341.05L594.351 343.884L593.324 337.886L597.679 333.644L591.66 332.771L588.969 327.317L586.278 332.771L580.259 333.644Z" fill="#11080E"/>
</g>
<g class="eyesRight">
<path d="M632.837 326.053L635.898 332.257L642.739 333.254L637.788 338.071L638.959 344.891L632.837 341.676L626.716 344.891L627.887 338.071L622.936 333.254L629.776 332.257L632.837 326.053Z" fill="#11080E"/>
<path d="M639.688 345.908L632.827 342.303L625.976 345.908L627.281 338.276L621.734 332.874L629.397 331.764L632.827 324.821L636.258 331.764L643.92 332.874L638.374 338.276L639.678 345.908H639.688ZM632.827 341.05L638.209 343.884L637.182 337.886L641.537 333.644L635.518 332.771L632.827 327.317L630.136 332.771L624.117 333.644L628.472 337.886L627.445 343.884L632.827 341.05Z" fill="#11080E"/>
</g>
<path d="M610.158 379.629C580.567 379.629 559.028 365.434 550.728 358.932L557.22 350.643C565.242 356.919 587.099 371.247 616.866 368.834C640.079 366.944 656.657 355.696 664.473 349.164L671.221 357.237C662.45 364.571 643.828 377.194 617.718 379.321C615.15 379.526 612.624 379.629 610.158 379.629Z" fill="#11080E"/>
</svg>
