<svg width="180" height="180" viewBox="0 0 180 180" fill="none" xmlns="http://www.w3.org/2000/svg">
<rect width="180" height="180" fill="#F9ED13"/>
<path d="M18 92.4297C18 73.6849 29.2719 60.2354 45.8855 60.2354C60.0393 60.2354 69.2801 69.5194 70.8058 81.1481H64.3638C63.1772 74.2056 58.1745 65.7862 45.8023 65.7862C31.1367 65.7862 24.442 78.5446 24.442 92.4297C24.442 106.315 31.223 118.985 45.8023 118.985C58.5999 118.985 63.9416 109.959 64.6197 101.37H71.0617C69.6192 114.908 60.212 124.539 45.8023 124.539C29.3583 124.539 18 111.26 18 92.4297Z" fill="#11080E"/>
<path d="M90.1219 133.564C83.9358 124.801 78.5109 111.61 78.5109 95.9008C78.5109 80.1918 83.9326 66.6572 90.1219 57.8906H95.1213C89.1879 68.3928 84.697 79.8447 84.697 95.9008C84.697 111.957 89.1879 123.065 95.1213 133.564H90.1219Z" fill="#11080E"/>
<path d="M102.243 123.412V61.3619H142.76V66.9159H108.433V88.8699H136.744V94.424H108.433V123.409H102.247L102.243 123.412Z" fill="#11080E"/>
<path d="M145.385 133.564C151.319 123.065 155.813 111.61 155.813 95.5537C155.813 79.4975 151.322 68.3928 145.385 57.8906H150.388C156.574 66.6572 161.999 79.8447 161.999 95.5537C161.999 111.263 156.574 124.801 150.388 133.564H145.385Z" fill="#11080E"/>
</svg>
