<svg width="320" height="320" viewBox="0 0 320 320" fill="none" xmlns="http://www.w3.org/2000/svg">
<rect width="320" height="320" fill="black"/>
<path d="M156.509 187.859C129.948 187.859 103.393 182.661 78 172.244L89.5087 144.193C134.738 162.75 184.355 161.894 229.214 141.781L241.619 169.447C214.262 181.714 185.382 187.859 156.506 187.859H156.509Z" fill="#F9ED13"/>
<path d="M229.214 229.962C184.355 209.849 134.738 208.993 89.5087 227.55L78 199.496C130.995 177.752 189.105 178.746 241.622 202.292L229.217 229.959L229.214 229.962Z" fill="#F9ED13"/>
<path d="M145.045 287.55L116.802 276.52C135.5 228.648 134.638 176.138 114.373 128.665L142.262 116.762C165.66 171.583 166.648 232.237 145.045 287.55Z" fill="#F9ED13"/>
<path d="M174.127 287.55C152.524 232.237 153.511 171.583 176.91 116.762L204.799 128.665C184.537 176.138 183.675 228.648 202.37 276.52L174.127 287.55Z" fill="#F9ED13"/>
<path d="M159.811 87.0736C174.743 87.0736 186.848 74.9688 186.848 60.0368C186.848 45.1048 174.743 33 159.811 33C144.879 33 132.774 45.1048 132.774 60.0368C132.774 74.9688 144.879 87.0736 159.811 87.0736Z" fill="#F9ED13"/>
</svg>
