<svg width="320" height="320" viewBox="0 0 320 320" fill="none" xmlns="http://www.w3.org/2000/svg">
<rect width="320" height="320" fill="black"/>
<mask id="mask0_2013_2" style="mask-type:luminance" maskUnits="userSpaceOnUse" x="178" y="212" width="43" height="11">
<path d="M178.34 212.755C181.821 213.111 185.302 213.47 188.78 213.826C199.434 215.095 210.012 217.979 220.331 222.497L209.891 221.426C199.569 216.908 188.995 214.024 178.34 212.755Z" fill="white"/>
</mask>
<g mask="url(#mask0_2013_2)">
<path d="M220.334 222.497L209.894 221.426C199.572 216.908 188.998 214.024 178.343 212.755L188.783 213.826C199.437 215.095 210.015 217.979 220.334 222.497Z" fill="#756F10"/>
</g>
<mask id="mask1_2013_2" style="mask-type:luminance" maskUnits="userSpaceOnUse" x="181" y="134" width="37" height="16">
<path d="M181.459 148.337C190.079 144.688 198.545 139.951 206.76 134.147L217.2 135.218C208.985 141.022 200.519 145.759 191.899 149.408C188.767 149.085 184.591 148.659 181.459 148.337Z" fill="white"/>
</mask>
<g mask="url(#mask1_2013_2)">
<path d="M191.903 149.408L181.463 148.337C184.202 147.175 186.928 145.906 189.634 144.527L200.073 145.597C197.368 146.977 194.642 148.246 191.903 149.408Z" fill="#8B8413"/>
<path d="M200.074 145.598L189.634 144.527C195.441 141.569 201.161 138.105 206.764 134.147L217.204 135.218C211.601 139.179 205.881 142.64 200.074 145.598Z" fill="#908914"/>
</g>
<path d="M188.142 183.372C201.952 184.571 215.665 188.079 229.019 193.926L220.335 222.497C210.012 217.978 199.438 215.095 188.783 213.826C187.934 203.755 187.719 193.577 188.142 183.372Z" fill="#F9ED13"/>
<mask id="mask2_2013_2" style="mask-type:luminance" maskUnits="userSpaceOnUse" x="177" y="182" width="12" height="32">
<path d="M177.702 182.302C181.028 182.654 184.835 183.047 188.142 183.372C187.719 193.577 187.933 203.755 188.783 213.826L178.343 212.755C177.494 202.685 177.279 192.507 177.702 182.302Z" fill="white"/>
</mask>
<g mask="url(#mask2_2013_2)">
<path d="M188.784 213.826L178.344 212.755C177.864 207.072 177.588 201.352 177.515 195.612L187.955 196.682C188.028 202.423 188.307 208.139 188.784 213.826Z" fill="#756F10"/>
<path d="M187.954 196.683L177.514 195.612C177.457 191.184 177.521 186.746 177.706 182.302L188.146 183.372C187.961 187.817 187.897 192.258 187.954 196.683Z" fill="#7B7511"/>
</g>
<mask id="mask3_2013_2" style="mask-type:luminance" maskUnits="userSpaceOnUse" x="177" y="182" width="14" height="2">
<path d="M177.702 182.302C178.35 182.359 178.998 182.419 179.646 182.486L190.086 183.557C189.438 183.49 188.79 183.43 188.142 183.372C185.01 183.05 180.834 182.624 177.702 182.302Z" fill="white"/>
</mask>
<g mask="url(#mask3_2013_2)">
<path d="M188.142 183.372L177.702 182.302C178.35 182.359 178.998 182.419 179.649 182.486L190.089 183.557C189.441 183.49 188.793 183.43 188.142 183.372Z" fill="#857F12"/>
</g>
<mask id="mask4_2013_2" style="mask-type:luminance" maskUnits="userSpaceOnUse" x="177" y="148" width="15" height="34">
<path d="M181.459 148.337C184.829 148.696 188.535 149.075 191.899 149.408C189.955 160.173 188.723 171.016 188.209 181.828L177.77 180.757C178.283 169.945 179.515 159.102 181.459 148.337Z" fill="white"/>
</mask>
<g mask="url(#mask4_2013_2)">
<path d="M188.212 181.828L177.772 180.757C178.205 171.694 179.139 162.607 180.575 153.563L191.015 154.634C189.579 163.678 188.645 172.765 188.212 181.828Z" fill="#7B7511"/>
<path d="M191.015 154.631L180.575 153.56C180.854 151.818 181.149 150.076 181.461 148.333L191.901 149.404C191.586 151.143 191.29 152.885 191.015 154.631Z" fill="#807A12"/>
</g>
<path d="M217.202 135.218L227.85 161.415C215.071 170.445 201.767 177.263 188.209 181.828C188.723 171.016 189.955 160.173 191.898 149.408C200.519 145.759 208.985 141.022 217.199 135.218H217.202Z" fill="#F9ED13"/>
<mask id="mask5_2013_2" style="mask-type:luminance" maskUnits="userSpaceOnUse" x="153" y="114" width="27" height="171">
<path d="M179.447 284.764L169.007 283.693C162.26 264.783 157.755 244.911 155.506 224.595C154.002 211.003 153.509 197.213 154.026 183.369C154.036 183.077 154.049 182.785 154.059 182.493C154.418 173.604 155.197 164.698 156.395 155.816C158.272 141.898 161.176 128.038 165.11 114.389L175.55 115.459C171.616 129.108 168.712 142.972 166.835 156.887C165.637 165.772 164.858 174.675 164.499 183.564C164.486 183.856 164.475 184.148 164.465 184.44C163.945 198.28 164.439 212.07 165.946 225.666C168.195 245.982 172.7 265.854 179.447 284.764Z" fill="white"/>
</mask>
<g mask="url(#mask5_2013_2)">
<path d="M179.448 284.764L169.008 283.693C162.261 264.783 157.756 244.911 155.507 224.595C154.52 215.686 153.969 206.689 153.852 197.653L164.291 198.723C164.409 207.76 164.959 216.757 165.946 225.666C168.195 245.982 172.7 265.854 179.448 284.764Z" fill="#756F10"/>
<path d="M164.291 198.723L153.851 197.653C153.79 192.903 153.851 188.139 154.025 183.369C154.036 183.077 154.049 182.785 154.059 182.493C154.418 173.604 155.197 164.698 156.395 155.816C156.698 153.573 157.026 151.331 157.382 149.089L167.822 150.159C167.466 152.399 167.137 154.641 166.835 156.887C165.637 165.772 164.858 174.675 164.499 183.564C164.485 183.856 164.475 184.148 164.465 184.44C164.287 189.21 164.227 193.97 164.291 198.723Z" fill="#7B7511"/>
<path d="M167.826 150.163L157.386 149.092C159.239 137.437 161.813 125.839 165.113 114.392L175.553 115.463C172.253 126.91 169.679 138.511 167.826 150.163Z" fill="#807A12"/>
</g>
<path d="M164.466 184.44C164.435 184.155 164.402 183.866 164.368 183.577C164.412 183.574 164.455 183.567 164.499 183.564C164.486 183.856 164.476 184.148 164.466 184.44Z" fill="#E4D91F"/>
<mask id="mask6_2013_2" style="mask-type:luminance" maskUnits="userSpaceOnUse" x="153" y="182" width="12" height="3">
<path d="M164.466 184.44L154.026 183.369C153.996 183.084 153.962 182.795 153.929 182.506L164.369 183.577C164.402 183.863 164.432 184.151 164.466 184.44Z" fill="white"/>
</mask>
<g mask="url(#mask6_2013_2)">
<path d="M164.466 184.44L154.026 183.369C153.996 183.084 153.962 182.795 153.929 182.506L164.369 183.577C164.402 183.863 164.432 184.151 164.466 184.44Z" fill="#756F10"/>
</g>
<mask id="mask7_2013_2" style="mask-type:luminance" maskUnits="userSpaceOnUse" x="153" y="182" width="12" height="2">
<path d="M153.929 182.51C153.972 182.506 154.016 182.5 154.06 182.496L164.5 183.567C164.456 183.571 164.412 183.577 164.369 183.581C160.888 183.225 157.406 182.866 153.929 182.51Z" fill="white"/>
</mask>
<g mask="url(#mask7_2013_2)">
<path d="M164.372 183.581L153.932 182.51C153.975 182.506 154.019 182.5 154.063 182.496L164.502 183.567C164.459 183.571 164.415 183.577 164.372 183.581Z" fill="#8B8413"/>
</g>
<path d="M175.554 115.459L197.709 124.573C195.343 132.781 193.409 141.069 191.902 149.404C189.958 160.17 188.726 171.012 188.212 181.825C188.189 182.339 188.166 182.855 188.142 183.369C187.719 193.574 187.934 203.752 188.783 213.823C190.445 233.554 194.544 252.867 201.066 271.141L179.448 284.76C172.7 265.851 168.195 245.978 165.946 225.662C164.442 212.07 163.949 198.28 164.466 184.437C164.476 184.145 164.489 183.852 164.5 183.56C164.859 174.671 165.637 165.766 166.836 156.883C168.712 142.966 171.616 129.105 175.55 115.456L175.554 115.459Z" fill="#F9ED13"/>
<mask id="mask8_2013_2" style="mask-type:luminance" maskUnits="userSpaceOnUse" x="149" y="156" width="16" height="28">
<path d="M164.371 183.581L153.932 182.51C152.945 173.839 151.548 165.252 149.742 156.786L160.182 157.857C161.988 166.323 163.385 174.906 164.371 183.581Z" fill="white"/>
</mask>
<g mask="url(#mask8_2013_2)">
<path d="M164.371 183.581L153.932 182.51C152.945 173.839 151.548 165.252 149.742 156.786L160.182 157.857C161.988 166.323 163.385 174.906 164.371 183.581Z" fill="#756F10"/>
</g>
<mask id="mask9_2013_2" style="mask-type:luminance" maskUnits="userSpaceOnUse" x="149" y="155" width="18" height="3">
<path d="M150.652 156.679C152.569 156.444 154.486 156.155 156.399 155.816L166.839 156.887C164.926 157.226 163.012 157.511 161.092 157.749C160.787 157.786 160.485 157.823 160.179 157.857L149.739 156.786C150.045 156.752 150.347 156.715 150.652 156.679Z" fill="white"/>
</mask>
<g mask="url(#mask9_2013_2)">
<path d="M160.179 157.857L149.739 156.786C150.045 156.752 150.347 156.715 150.652 156.679C152.569 156.444 154.486 156.155 156.399 155.816L166.839 156.887C164.926 157.226 163.012 157.511 161.092 157.749C160.787 157.786 160.485 157.823 160.179 157.857Z" fill="#8B8413"/>
</g>
<path d="M160.179 157.857C160.484 157.823 160.786 157.786 161.092 157.749C163.009 157.514 164.925 157.226 166.839 156.887C165.64 165.772 164.862 174.675 164.502 183.564C164.459 183.567 164.415 183.574 164.371 183.577C163.385 174.906 161.988 166.32 160.182 157.854L160.179 157.857Z" fill="#F9ED13"/>
<path d="M156.785 287.546L146.342 286.476L123.941 278.261L134.381 279.332L156.785 287.546Z" fill="#706A0F"/>
<mask id="mask10_2013_2" style="mask-type:luminance" maskUnits="userSpaceOnUse" x="116" y="132" width="27" height="148">
<path d="M134.382 279.332L123.942 278.261C129.192 258.201 131.877 237.69 132.032 217.374C132.109 207.243 131.555 197.159 130.377 187.209C129.152 176.867 127.252 166.669 124.68 156.695C122.525 148.337 119.897 140.139 116.802 132.157L127.242 133.227C130.337 141.21 132.965 149.408 135.12 157.766C137.692 167.74 139.592 177.938 140.817 188.28C141.995 198.233 142.549 208.317 142.472 218.445C142.317 238.761 139.632 259.272 134.382 279.332Z" fill="white"/>
</mask>
<g mask="url(#mask10_2013_2)">
<path d="M134.381 279.332L123.941 278.261C126.019 270.329 127.694 262.326 128.97 254.293L139.41 255.364C138.134 263.397 136.459 271.4 134.381 279.332Z" fill="#807A12"/>
<path d="M139.411 255.361L128.971 254.29C130.921 242.007 131.942 229.654 132.036 217.371C132.049 215.699 132.042 214.031 132.022 212.362L142.462 213.433C142.482 215.102 142.489 216.773 142.475 218.442C142.381 230.725 141.364 243.078 139.411 255.361Z" fill="#7B7511"/>
<path d="M142.458 213.433L132.018 212.362C131.908 203.92 131.361 195.518 130.377 187.206C129.152 176.863 127.252 166.665 124.68 156.692C122.525 148.333 119.897 140.136 116.802 132.153L127.242 133.224C130.337 141.207 132.965 149.404 135.12 157.763C137.692 167.736 139.592 177.934 140.817 188.277C141.8 196.585 142.348 204.987 142.458 213.433Z" fill="#756F10"/>
</g>
<mask id="mask11_2013_2" style="mask-type:luminance" maskUnits="userSpaceOnUse" x="129" y="187" width="12" height="2">
<path d="M139.971 188.532L129.531 187.461C129.813 187.377 130.095 187.29 130.377 187.206L140.817 188.277C140.535 188.361 140.253 188.445 139.971 188.532Z" fill="white"/>
</mask>
<g mask="url(#mask11_2013_2)">
<path d="M139.971 188.532L129.531 187.461C129.813 187.377 130.095 187.29 130.377 187.206L140.817 188.277C140.535 188.361 140.253 188.445 139.971 188.532Z" fill="#8B8413"/>
</g>
<path d="M127.242 133.227L116.802 132.157L138.111 117.705L148.551 118.776L127.242 133.227Z" fill="#999215"/>
<path d="M148.551 118.776C153.445 131.391 157.322 144.47 160.179 157.857C161.985 166.323 163.381 174.906 164.368 183.581C164.402 183.866 164.432 184.155 164.466 184.443C163.945 198.284 164.439 212.074 165.946 225.669C165.167 246.358 162.123 267.157 156.785 287.55L134.381 279.335C139.631 259.275 142.317 238.764 142.471 218.448C142.549 208.317 141.995 198.233 140.816 188.284C139.591 177.941 137.691 167.743 135.12 157.77C132.965 149.411 130.336 141.213 127.241 133.231L148.551 118.779V118.776Z" fill="#F9ED13"/>
<path d="M139.971 188.532C140.253 188.448 140.535 188.361 140.817 188.277C141.995 198.23 142.549 208.314 142.472 218.442C131.874 221.846 121.448 226.861 111.374 233.474L101.407 206.81C113.888 198.623 126.826 192.52 139.971 188.532Z" fill="#F9ED13"/>
<path d="M111.373 233.477L100.933 232.403L90.9668 205.739L101.407 206.81L111.373 233.477Z" fill="#757010"/>
<mask id="mask12_2013_2" style="mask-type:luminance" maskUnits="userSpaceOnUse" x="90" y="187" width="50" height="20">
<path d="M101.407 206.81L90.9668 205.739C103.448 197.552 116.385 191.449 129.531 187.461L139.971 188.532C126.825 192.52 113.884 198.623 101.407 206.81Z" fill="white"/>
</mask>
<g mask="url(#mask12_2013_2)">
<path d="M101.407 206.81L90.9668 205.739C95.9283 202.483 100.967 199.556 106.059 196.961L116.499 198.032C111.407 200.627 106.372 203.554 101.407 206.81Z" fill="#908914"/>
<path d="M116.499 198.035L106.06 196.964C113.774 193.034 121.615 189.865 129.534 187.464L139.974 188.535C132.059 190.939 124.214 194.108 116.499 198.035Z" fill="#8B8413"/>
</g>
<mask id="mask13_2013_2" style="mask-type:luminance" maskUnits="userSpaceOnUse" x="90" y="178" width="45" height="11">
<path d="M134.166 188.075L123.727 187.005C112.367 185.84 101.074 183.101 90 178.774L100.44 179.844C111.514 184.175 122.807 186.911 134.166 188.075Z" fill="white"/>
</mask>
<g mask="url(#mask13_2013_2)">
<path d="M134.166 188.075L123.727 187.005C112.367 185.84 101.074 183.101 90 178.774L100.44 179.844C111.514 184.175 122.807 186.911 134.166 188.075Z" fill="#756F10"/>
</g>
<path d="M100.44 179.841L90 178.77L97.9726 149.904L108.412 150.975L100.44 179.841Z" fill="#8F8814"/>
<path d="M108.413 150.975C117.185 154.406 126.124 156.665 135.12 157.766C137.692 167.739 139.592 177.938 140.817 188.28C140.535 188.364 140.253 188.448 139.971 188.535C126.654 187.797 113.398 184.91 100.44 179.844L108.413 150.979V150.975Z" fill="#F9ED13"/>
<mask id="mask14_2013_2" style="mask-type:luminance" maskUnits="userSpaceOnUse" x="148" y="33" width="15" height="2">
<path d="M152.546 33.0852L162.986 34.156C161.767 34.0318 160.522 34.0419 159.249 34.1963L148.81 33.1255C150.078 32.9711 151.327 32.961 152.546 33.0852Z" fill="white"/>
</mask>
<g mask="url(#mask14_2013_2)">
<path d="M159.252 34.1962L148.812 33.1254C149.185 33.0784 149.554 33.0482 149.924 33.0247L160.364 34.0955C159.994 34.1156 159.625 34.1492 159.252 34.1962Z" fill="#8A8411"/>
<path d="M160.364 34.0955L149.924 33.0247C150.81 32.9743 151.686 32.9945 152.549 33.0818L162.989 34.1526C162.129 34.0653 161.253 34.0418 160.364 34.0955Z" fill="#857F11"/>
</g>
<path d="M159.252 34.1963C170.891 32.7663 180.753 43.5922 181.284 58.3692C181.814 73.1495 172.811 86.2883 161.173 87.715C149.534 89.1417 139.672 78.3225 139.141 63.5421C138.611 48.7652 147.618 35.623 159.252 34.1963Z" fill="#F9ED13"/>
<mask id="mask15_2013_2" style="mask-type:luminance" maskUnits="userSpaceOnUse" x="128" y="33" width="32" height="55">
<path d="M157.437 87.7586L146.997 86.6878C137.054 85.6673 129.172 75.6403 128.702 62.4746C128.172 47.6976 137.178 34.5555 148.813 33.1288L159.253 34.1996C147.618 35.6297 138.611 48.7685 139.142 63.5455C139.615 76.7145 147.497 86.7381 157.437 87.7586Z" fill="white"/>
</mask>
<g mask="url(#mask15_2013_2)">
<path d="M157.437 87.7587L146.997 86.6878C137.054 85.6673 129.172 75.6403 128.702 62.4747C128.692 62.2195 128.685 61.9644 128.682 61.7126L139.122 62.7835C139.125 63.0386 139.132 63.2904 139.142 63.5455C139.615 76.7145 147.497 86.7382 157.437 87.7587Z" fill="#756F0F"/>
<path d="M139.122 62.7802L128.682 61.7093C128.655 59.7086 128.799 57.7415 129.105 55.8314L139.545 56.9023C139.243 58.8123 139.095 60.7795 139.122 62.7802Z" fill="#7A750F"/>
<path d="M139.544 56.9022L129.104 55.8313C129.383 54.0723 129.796 52.3603 130.33 50.7222L140.77 51.793C140.236 53.4345 139.823 55.1432 139.544 56.9022Z" fill="#7F7A10"/>
<path d="M140.77 51.793L130.33 50.7222C130.921 48.9061 131.656 47.174 132.522 45.5526L142.962 46.6235C142.096 48.2415 141.361 49.9736 140.77 51.793Z" fill="#857F11"/>
<path d="M142.961 46.6234L132.521 45.5526C133.925 42.9241 135.67 40.5945 137.671 38.6743L148.111 39.7452C146.11 41.6619 144.368 43.995 142.961 46.6234Z" fill="#8A8411"/>
<path d="M148.111 39.7452L137.671 38.6744C139.208 37.2007 140.9 35.9687 142.71 35.0355L153.149 36.1064C151.34 37.0396 149.648 38.2716 148.111 39.7452Z" fill="#908912"/>
<path d="M153.15 36.1064L142.71 35.0356C144.627 34.0453 146.674 33.3873 148.813 33.1255L159.253 34.1963C157.114 34.4582 155.067 35.1161 153.15 36.1064Z" fill="#8A8411"/>
</g>
</svg>
