<svg width="118" height="54" viewBox="0 0 118 54" fill="none" xmlns="http://www.w3.org/2000/svg">
<g class="eyes">
<path d="M37.4197 1.44L40.3997 7.48001L47.0597 8.45001L42.2397 13.14L43.3797 19.78L37.4197 16.65L31.4597 19.78L32.5997 13.14L27.7797 8.45001L34.4397 7.48001L37.4197 1.44Z" fill="#F9ED13"/>
<path d="M44.0897 20.77L37.4197 17.26L30.7397 20.77L32.0097 13.34L26.6097 8.07999L34.0697 7L37.4097 0.23999L40.7497 7L48.2097 8.07999L42.8097 13.34L44.0797 20.77H44.0897ZM28.9297 8.82999L33.1697 12.96L32.1697 18.8L37.4097 16.04L42.6497 18.8L41.6497 12.96L45.8897 8.82999L40.0297 7.98001L37.4097 2.67001L34.7897 7.98001L28.9297 8.82999Z" fill="#F9ED13"/>
</g>
<g class="eyesRight">
<path d="M80.1197 1.44L83.0997 7.48001L89.7597 8.45001L84.9397 13.14L86.0797 19.78L80.1197 16.65L74.1597 19.78L75.2997 13.14L70.4797 8.45001L77.1397 7.48001L80.1197 1.44Z" fill="#F9ED13"/>
<path d="M86.7897 20.77L80.1097 17.26L73.4397 20.77L74.7097 13.34L69.3097 8.07999L76.7697 7L80.1097 0.23999L83.4497 7L90.9097 8.07999L85.5097 13.34L86.7797 20.77H86.7897ZM80.1097 16.04L85.3497 18.8L84.3497 12.96L88.5897 8.82999L82.7297 7.98001L80.1097 2.67001L77.4897 7.98001L71.6297 8.82999L75.8697 12.96L74.8697 18.8L80.1097 16.04Z" fill="#F9ED13"/>
</g>
<path d="M58.0397 53.6C29.2297 53.6 8.25969 39.78 0.179688 33.45L6.49969 25.38C14.3097 31.49 35.5897 45.44 64.5697 43.09C87.1697 41.25 103.31 30.3 110.92 23.94L117.49 31.8C108.95 38.94 90.8197 51.23 65.3997 53.3C62.8997 53.5 60.4397 53.6 58.0397 53.6Z" fill="#F9ED13"/>
</svg>
