<svg width="42" height="22" viewBox="0 0 42 22" fill="none" xmlns="http://www.w3.org/2000/svg">
<path d="M8.02337 19.3119C3.36737 19.3119 0.151367 15.6399 0.151367 10.4319C0.151367 5.24788 3.34337 1.52788 8.04737 1.52788C12.0554 1.52788 14.6714 4.09588 15.1034 7.31188H13.2794C12.9434 5.39188 11.5274 3.06388 8.02337 3.06388C3.87137 3.06388 1.97537 6.59188 1.97537 10.4319C1.97537 14.2719 3.89537 17.7759 8.02337 17.7759C11.6474 17.7759 13.1594 15.2799 13.3514 12.9039H15.1754C14.7674 16.6479 12.1034 19.3119 8.02337 19.3119Z" fill="#F5E658"/>
<path d="M22.0177 21.8079H20.6017C18.8497 19.3839 17.3137 15.7359 17.3137 11.3919C17.3137 6.90388 18.8497 3.30388 20.6017 0.879883H22.0177C20.3377 3.78388 19.0657 6.95188 19.0657 11.3919C19.0657 15.7359 20.3377 18.9039 22.0177 21.8079Z" fill="#F5E658"/>
<path d="M26.2674 18.9999H24.5154V1.83988H35.9874V3.37588H26.2674V9.44788H34.2834V10.9839H26.2674V18.9999Z" fill="#F5E658"/>
<path d="M38.6326 21.8079H37.2166C38.8966 18.9039 40.1686 15.7359 40.1686 11.2959C40.1686 6.95188 38.8966 3.78388 37.2166 0.879883H38.6326C40.3846 3.30388 41.9206 6.95188 41.9206 11.2959C41.9206 15.7839 40.3846 19.3839 38.6326 21.8079Z" fill="#F5E658"/>
</svg>
